<svg xmlns="http://www.w3.org/2000/svg" width="54" height="33" viewBox="0 0 54 33"><path fill="#5178e1" d="M42.105 9.263c-.566 0-1.122.04-1.666.118.67-3.317 1.16-4.232 5.693-8.746-6.617.527-18.442 8.6-16.099 21.601 1.152 6.394 5.576 10.552 12.072 10.552 6.496 0 11.762-5.266 11.762-11.762 0-6.497-5.266-11.763-11.762-11.763zm-29.598 0c-.565 0-1.121.04-1.665.118.67-3.317 1.16-4.232 5.692-8.746-6.616.527-18.442 8.6-16.099 21.601 1.152 6.394 5.576 10.552 12.072 10.552 6.497 0 11.763-5.266 11.763-11.762 0-6.497-5.266-11.763-11.763-11.763z"/></svg>